<svg width="168" height="21" viewBox="0 0 168 21" fill="none" xmlns="http://www.w3.org/2000/svg">
<path d="M17.2243 2.87008L10.5234 20.7135H7.13444L0.407867 2.87008H3.54009L8.82892 17.7096L14.1434 2.87008H17.2243Z" fill="#212121"/>
<path d="M18.6963 13.5761C18.6963 12.1555 18.9873 10.8975 19.5692 9.80204C20.1683 8.70662 20.9728 7.85938 21.9826 7.26032C23.0096 6.64415 24.1392 6.33606 25.3716 6.33606C26.4841 6.33606 27.4511 6.55857 28.2727 7.00358C29.1114 7.43148 29.7789 7.97064 30.2753 8.62104V6.56713H33.2278V20.7135H30.2753V18.6082C29.7789 19.2757 29.1028 19.832 28.247 20.277C27.3912 20.722 26.4156 20.9445 25.3202 20.9445C24.105 20.9445 22.9924 20.6364 21.9826 20.0203C20.9728 19.387 20.1683 18.5141 19.5692 17.4015C18.9873 16.2719 18.6963 14.9967 18.6963 13.5761ZM30.2753 13.6275C30.2753 12.6519 30.0699 11.8046 29.6591 11.0857C29.2654 10.3669 28.7434 9.81916 28.093 9.44261C27.4426 9.06606 26.7408 8.87778 25.9877 8.87778C25.2346 8.87778 24.5329 9.06606 23.8825 9.44261C23.2321 9.80204 22.7015 10.3412 22.2907 11.0601C21.897 11.7618 21.7002 12.6005 21.7002 13.5761C21.7002 14.5517 21.897 15.4075 22.2907 16.1435C22.7015 16.8795 23.2321 17.4443 23.8825 17.838C24.55 18.2145 25.2517 18.4028 25.9877 18.4028C26.7408 18.4028 27.4426 18.2145 28.093 17.838C28.7434 17.4614 29.2654 16.9137 29.6591 16.1949C30.0699 15.4589 30.2753 14.6031 30.2753 13.6275Z" fill="#212121"/>
<path d="M42.2068 20.9445C41.0943 20.9445 40.093 20.7477 39.203 20.354C38.3301 19.9433 37.6369 19.3955 37.1234 18.7109C36.6099 18.0091 36.3361 17.2304 36.3018 16.3746H39.3314C39.3827 16.9736 39.6651 17.4786 40.1786 17.8893C40.7092 18.283 41.3682 18.4798 42.1555 18.4798C42.9771 18.4798 43.6104 18.3258 44.0554 18.0177C44.5175 17.6925 44.7486 17.2817 44.7486 16.7854C44.7486 16.2548 44.4918 15.8611 43.9783 15.6044C43.482 15.3476 42.6861 15.0652 41.5907 14.7571C40.5295 14.4661 39.6651 14.1837 38.9976 13.9099C38.3301 13.636 37.7481 13.2167 37.2518 12.6519C36.7725 12.087 36.5329 11.3425 36.5329 10.4182C36.5329 9.66512 36.7554 8.98048 37.2004 8.3643C37.6454 7.73101 38.2787 7.23465 39.1003 6.87521C39.939 6.51578 40.8975 6.33606 41.9758 6.33606C43.5847 6.33606 44.8769 6.74685 45.8525 7.56841C46.8453 8.37286 47.3759 9.47684 47.4443 10.8803H44.5175C44.4662 10.2471 44.2094 9.74214 43.7473 9.36559C43.2852 8.98904 42.6604 8.80076 41.8731 8.80076C41.1029 8.80076 40.5124 8.94625 40.1016 9.23722C39.6908 9.52819 39.4854 9.9133 39.4854 10.3925C39.4854 10.7691 39.6223 11.0857 39.8962 11.3425C40.17 11.5992 40.5038 11.8046 40.8975 11.9587C41.2911 12.0956 41.8731 12.2753 42.6433 12.4978C43.6703 12.7717 44.5089 13.0541 45.1593 13.345C45.8269 13.6189 46.4003 14.0297 46.8795 14.5774C47.3587 15.1251 47.6069 15.8525 47.624 16.7597C47.624 17.5641 47.4015 18.283 46.9565 18.9163C46.5115 19.5496 45.8782 20.0459 45.0567 20.4054C44.2522 20.7648 43.3023 20.9445 42.2068 20.9445Z" fill="#212121"/>
<path d="M52.2756 4.69293C51.745 4.69293 51.3 4.51321 50.9406 4.15378C50.5812 3.79434 50.4014 3.34933 50.4014 2.81873C50.4014 2.28814 50.5812 1.84312 50.9406 1.48369C51.3 1.12425 51.745 0.944534 52.2756 0.944534C52.7891 0.944534 53.2256 1.12425 53.585 1.48369C53.9444 1.84312 54.1242 2.28814 54.1242 2.81873C54.1242 3.34933 53.9444 3.79434 53.585 4.15378C53.2256 4.51321 52.7891 4.69293 52.2756 4.69293ZM53.7134 6.56713V20.7135H50.7866V6.56713H53.7134Z" fill="#212121"/>
<path d="M60.4829 1.71475V20.7135H57.556V1.71475H60.4829Z" fill="#212121"/>
<path d="M65.8146 4.69293C65.284 4.69293 64.839 4.51321 64.4796 4.15378C64.1201 3.79434 63.9404 3.34933 63.9404 2.81873C63.9404 2.28814 64.1201 1.84312 64.4796 1.48369C64.839 1.12425 65.284 0.944534 65.8146 0.944534C66.3281 0.944534 66.7646 1.12425 67.124 1.48369C67.4834 1.84312 67.6632 2.28814 67.6632 2.81873C67.6632 3.34933 67.4834 3.79434 67.124 4.15378C66.7646 4.51321 66.3281 4.69293 65.8146 4.69293ZM67.2524 6.56713V20.7135H64.3255V6.56713H67.2524Z" fill="#212121"/>
<path d="M76.2298 20.9445C75.1173 20.9445 74.116 20.7477 73.226 20.354C72.3531 19.9433 71.6599 19.3955 71.1464 18.7109C70.6329 18.0091 70.3591 17.2304 70.3248 16.3746H73.3543C73.4057 16.9736 73.6881 17.4786 74.2016 17.8893C74.7322 18.283 75.3911 18.4798 76.1785 18.4798C77 18.4798 77.6333 18.3258 78.0784 18.0177C78.5405 17.6925 78.7715 17.2817 78.7715 16.7854C78.7715 16.2548 78.5148 15.8611 78.0013 15.6044C77.505 15.3476 76.7091 15.0652 75.6137 14.7571C74.5525 14.4661 73.6881 14.1837 73.0206 13.9099C72.3531 13.636 71.7711 13.2167 71.2748 12.6519C70.7955 12.087 70.5559 11.3425 70.5559 10.4182C70.5559 9.66512 70.7784 8.98048 71.2234 8.3643C71.6684 7.73101 72.3017 7.23465 73.1233 6.87521C73.962 6.51578 74.9205 6.33606 75.9988 6.33606C77.6077 6.33606 78.8999 6.74685 79.8755 7.56841C80.8683 8.37286 81.3988 9.47684 81.4673 10.8803H78.5405C78.4891 10.2471 78.2324 9.74214 77.7703 9.36559C77.3081 8.98904 76.6834 8.80076 75.8961 8.80076C75.1258 8.80076 74.5353 8.94625 74.1246 9.23722C73.7138 9.52819 73.5084 9.9133 73.5084 10.3925C73.5084 10.7691 73.6453 11.0857 73.9192 11.3425C74.193 11.5992 74.5268 11.8046 74.9205 11.9587C75.3141 12.0956 75.8961 12.2753 76.6663 12.4978C77.6932 12.7717 78.5319 13.0541 79.1823 13.345C79.8499 13.6189 80.4232 14.0297 80.9025 14.5774C81.3817 15.1251 81.6299 15.8525 81.647 16.7597C81.647 17.5641 81.4245 18.283 80.9795 18.9163C80.5345 19.5496 79.9012 20.0459 79.0796 20.4054C78.2752 20.7648 77.3252 20.9445 76.2298 20.9445Z" fill="#212121"/>
<path d="M101.029 11.5479C101.988 11.719 102.801 12.224 103.468 13.0626C104.136 13.9013 104.47 14.8513 104.47 15.9124C104.47 16.8196 104.23 17.6412 103.751 18.3771C103.289 19.096 102.613 19.6694 101.723 20.0973C100.833 20.5081 99.7971 20.7135 98.6161 20.7135H91.4787V2.87008H98.2823C99.4976 2.87008 100.542 3.07547 101.415 3.48626C102.287 3.89704 102.946 4.45331 103.391 5.15506C103.836 5.8397 104.059 6.60992 104.059 7.46572C104.059 8.49267 103.785 9.34847 103.237 10.0331C102.69 10.7177 101.954 11.2227 101.029 11.5479ZM94.4056 10.3669H98.0256C98.9841 10.3669 99.7286 10.1529 100.259 9.72502C100.807 9.28001 101.081 8.64672 101.081 7.82515C101.081 7.0207 100.807 6.39597 100.259 5.95095C99.7286 5.48882 98.9841 5.25776 98.0256 5.25776H94.4056V10.3669ZM98.3594 18.3258C99.3521 18.3258 100.131 18.0862 100.696 17.6069C101.261 17.1277 101.543 16.4602 101.543 15.6044C101.543 14.7314 101.243 14.0382 100.644 13.5248C100.045 13.0113 99.2494 12.7545 98.2567 12.7545H94.4056V18.3258H98.3594Z" fill="#212121"/>
<path d="M106.675 13.5761C106.675 12.1555 106.966 10.8975 107.548 9.80204C108.147 8.70662 108.951 7.85938 109.961 7.26032C110.988 6.64415 112.118 6.33606 113.35 6.33606C114.462 6.33606 115.43 6.55857 116.251 7.00358C117.09 7.43148 117.757 7.97064 118.254 8.62104V6.56713H121.206V20.7135H118.254V18.6082C117.757 19.2757 117.081 19.832 116.225 20.277C115.37 20.722 114.394 20.9445 113.299 20.9445C112.083 20.9445 110.971 20.6364 109.961 20.0203C108.951 19.387 108.147 18.5141 107.548 17.4015C106.966 16.2719 106.675 14.9967 106.675 13.5761ZM118.254 13.6275C118.254 12.6519 118.048 11.8046 117.637 11.0857C117.244 10.3669 116.722 9.81916 116.071 9.44261C115.421 9.06606 114.719 8.87778 113.966 8.87778C113.213 8.87778 112.511 9.06606 111.861 9.44261C111.21 9.80204 110.68 10.3412 110.269 11.0601C109.875 11.7618 109.679 12.6005 109.679 13.5761C109.679 14.5517 109.875 15.4075 110.269 16.1435C110.68 16.8795 111.21 17.4443 111.861 17.838C112.528 18.2145 113.23 18.4028 113.966 18.4028C114.719 18.4028 115.421 18.2145 116.071 17.838C116.722 17.4614 117.244 16.9137 117.637 16.1949C118.048 15.4589 118.254 14.6031 118.254 13.6275Z" fill="#212121"/>
<path d="M130.647 13.6531L137.169 20.7135H133.215L127.977 14.6287V20.7135H125.05V1.71475H127.977V12.7545L133.112 6.56713H137.169L130.647 13.6531Z" fill="#212121"/>
<path d="M138.291 13.5761C138.291 12.1555 138.582 10.8975 139.164 9.80204C139.763 8.70662 140.567 7.85938 141.577 7.26032C142.604 6.64415 143.734 6.33606 144.966 6.33606C146.079 6.33606 147.046 6.55857 147.867 7.00358C148.706 7.43148 149.373 7.97064 149.87 8.62104V6.56713H152.822V20.7135H149.87V18.6082C149.373 19.2757 148.697 19.832 147.841 20.277C146.986 20.722 146.01 20.9445 144.915 20.9445C143.699 20.9445 142.587 20.6364 141.577 20.0203C140.567 19.387 139.763 18.5141 139.164 17.4015C138.582 16.2719 138.291 14.9967 138.291 13.5761ZM149.87 13.6275C149.87 12.6519 149.664 11.8046 149.254 11.0857C148.86 10.3669 148.338 9.81916 147.687 9.44261C147.037 9.06606 146.335 8.87778 145.582 8.87778C144.829 8.87778 144.127 9.06606 143.477 9.44261C142.826 9.80204 142.296 10.3412 141.885 11.0601C141.491 11.7618 141.295 12.6005 141.295 13.5761C141.295 14.5517 141.491 15.4075 141.885 16.1435C142.296 16.8795 142.826 17.4443 143.477 17.838C144.144 18.2145 144.846 18.4028 145.582 18.4028C146.335 18.4028 147.037 18.2145 147.687 17.838C148.338 17.4614 148.86 16.9137 149.254 16.1949C149.664 15.4589 149.87 14.6031 149.87 13.6275Z" fill="#212121"/>
<path d="M161.801 20.9445C160.689 20.9445 159.687 20.7477 158.797 20.354C157.924 19.9433 157.231 19.3955 156.718 18.7109C156.204 18.0091 155.93 17.2304 155.896 16.3746H158.926C158.977 16.9736 159.26 17.4786 159.773 17.8893C160.304 18.283 160.963 18.4798 161.75 18.4798C162.571 18.4798 163.205 18.3258 163.65 18.0177C164.112 17.6925 164.343 17.2817 164.343 16.7854C164.343 16.2548 164.086 15.8611 163.573 15.6044C163.076 15.3476 162.281 15.0652 161.185 14.7571C160.124 14.4661 159.26 14.1837 158.592 13.9099C157.924 13.636 157.343 13.2167 156.846 12.6519C156.367 12.087 156.127 11.3425 156.127 10.4182C156.127 9.66512 156.35 8.98048 156.795 8.3643C157.24 7.73101 157.873 7.23465 158.695 6.87521C159.533 6.51578 160.492 6.33606 161.57 6.33606C163.179 6.33606 164.471 6.74685 165.447 7.56841C166.44 8.37286 166.97 9.47684 167.039 10.8803H164.112C164.061 10.2471 163.804 9.74214 163.342 9.36559C162.88 8.98904 162.255 8.80076 161.468 8.80076C160.697 8.80076 160.107 8.94625 159.696 9.23722C159.285 9.52819 159.08 9.9133 159.08 10.3925C159.08 10.7691 159.217 11.0857 159.491 11.3425C159.764 11.5992 160.098 11.8046 160.492 11.9587C160.886 12.0956 161.467 12.2753 162.238 12.4978C163.265 12.7717 164.103 13.0541 164.754 13.345C165.421 13.6189 165.995 14.0297 166.474 14.5774C166.953 15.1251 167.201 15.8525 167.218 16.7597C167.218 17.5641 166.996 18.283 166.551 18.9163C166.106 19.5496 165.473 20.0459 164.651 20.4054C163.847 20.7648 162.897 20.9445 161.801 20.9445Z" fill="#212121"/>
</svg>
